<svg width="87" height="86" viewBox="0 0 87 86" fill="none" xmlns="http://www.w3.org/2000/svg">
<path d="M46.2966 68.8214L46.0912 63.9399C46.0912 63.9399 50.1888 63.0835 54.2291 59.8086L11.7583 17.3378L12.5001 11.6441L18.1938 10.9023L60.6646 53.3731C63.8932 49.3791 64.7496 45.2815 64.7496 45.2815L69.6311 45.4869C68.4675 51.9625 62.8859 57.7241 62.8859 57.7241L71.9536 68.6438C72.9838 68.4239 74.0526 68.7056 74.8179 69.4709C76.0558 70.7089 76.0276 72.7178 74.7776 73.9679C73.5275 75.2179 71.5186 75.2461 70.3031 74.0307C69.5153 73.2429 69.2568 72.151 69.476 71.1664L58.5563 62.0987C58.5338 62.0762 52.7722 67.6578 46.2966 68.8214Z" fill="#FFAF1D"/>
<path d="M17.6235 45.4869L22.505 45.2816C22.505 45.2816 23.3614 49.3791 26.6363 53.4194L69.1071 10.9486L74.8008 11.6904L75.5426 17.3841L33.0718 59.8549C37.0658 63.0835 41.1633 63.9399 41.1633 63.9399L40.958 68.8214C34.4824 67.6578 28.7207 62.0762 28.7207 62.0762L17.8011 71.1439C18.021 72.1741 17.7393 73.2429 16.974 74.0082C15.736 75.2461 13.7271 75.2179 12.477 73.9679C11.227 72.7178 11.1988 70.7089 12.4142 69.4934C13.202 68.7056 14.2939 68.4471 15.2785 68.6663L24.3462 57.7467C24.3687 57.7241 18.7871 51.9625 17.6235 45.4869Z" fill="#FFAF1D"/>
</svg>
