<svg width="173" height="351" viewBox="0 0 173 351" fill="none" xmlns="http://www.w3.org/2000/svg">
<path opacity="0.1" d="M173 128.402L155.666 147.826C155.666 147.826 137.302 135.45 110.185 132.527L110.185 332.092L86.3284 351L62.4722 332.092L62.4722 132.527C35.6984 135.45 17.3343 147.826 17.3343 147.826L0 128.402C28.3185 108.119 70.3671 107.431 70.3671 107.431L77.2321 31.1121C72.5982 28.0181 69.6805 22.8614 69.6805 17.0171C69.6805 7.56317 77.2321 0 86.5 0C95.7679 0 103.319 7.56317 103.319 16.8453C103.319 22.8614 100.23 28.0181 95.7679 30.9403L102.633 107.26C102.633 107.431 144.682 108.119 173 128.402Z" fill="#FAFAFA"/>
</svg>
